<svg width="239" height="417" viewBox="0 0 239 417" fill="none" xmlns="http://www.w3.org/2000/svg">
<path d="M45.8168 397.09V353.908C45.8168 349.46 47.7504 345.506 50.773 342.739H39.1854C30.8748 342.739 24.1064 349.505 24.1064 357.903V401.084C24.1064 409.479 30.8748 416.248 39.1854 416.248H170.528C174.435 416.248 177.968 414.713 180.651 412.258H60.8969C52.5851 412.258 45.8168 405.488 45.8168 397.09Z" fill="white"/>
<path d="M198.494 51.5561C198.933 49.8222 199.659 48.2504 200.579 46.8446C199.723 46.2329 198.936 45.5361 197.945 45.0985C195.888 44.2397 193.832 43.8102 191.776 43.8102C184.922 43.8102 178.582 48.4367 176.783 55.5506L169.739 84.1318L170.306 165.938L198.494 51.5561" fill="#FFCC99"/>
<path d="M224.71 155.142C225.084 154.522 225.583 154.06 226.015 153.509C223.366 151.889 220.402 150.994 217.393 150.994C214.888 150.994 212.411 151.63 210.116 152.732L202.435 191.898L224.71 155.142" fill="#FFCC99"/>
<path d="M77.7738 48.3038C77.7738 47.8744 77.6883 47.445 77.6883 47.1047C77.6883 43.9123 78.7858 40.9873 80.4958 38.4918C76.9331 35.9882 72.3691 34.9389 67.8013 36.1016C60.8612 37.8153 55.9775 43.9853 55.9775 51.0951C55.9775 51.4394 56.0634 51.8648 56.0634 52.2942L60.2102 109.505L87.0271 175.961L77.7738 48.3038Z" fill="#FFCC99"/>
<path d="M135.863 16.9431C136.037 13.3416 137.369 10.0803 139.444 7.43492C136.927 5.91977 134.009 5.00013 130.859 5.00013C121.863 5.00013 114.58 12.0249 114.152 20.9375L112.15 65.1523L129.18 164.564L135.863 16.9431" fill="#FFCC99"/>
<path d="M75.118 272.691L27.3111 108.533C26.8821 107.078 26.7116 105.705 26.7116 104.251C26.7116 101.386 27.5526 98.6073 29.0564 96.2171C24.6507 92.9559 18.6545 92.1456 13.311 94.7911C8.08457 97.3595 5 102.671 5 108.241C5 109.699 5.17137 111.069 5.59998 112.527L53.4077 276.681V342.74H156.22V338.746H75.118V272.691Z" fill="white"/>
<path d="M178.325 276.682L232.13 175.669C235.128 170.099 234.7 163.248 231.016 158.107C229.631 156.118 227.891 154.656 226.016 153.509C225.584 154.06 225.085 154.522 224.711 155.142L202.435 191.898L210.117 152.732C207.311 154.081 204.791 156.163 203 159.132L180.724 195.889L206.941 62.232C208.105 56.1916 205.418 50.3134 200.579 46.8455C199.659 48.2513 198.933 49.8231 198.494 51.5571L170.306 165.938L169.739 84.1327L148.595 169.929L147.567 21.5377C147.51 15.5217 144.25 10.3281 139.444 7.43554C137.369 10.081 136.037 13.3422 135.864 16.9437L129.18 164.565L112.151 65.1529L107.47 168.56L86.9078 48.5268C86.1717 44.273 83.7495 40.7809 80.4963 38.492C78.7863 40.9875 77.6889 43.9125 77.6889 47.1048C77.6889 47.4451 77.7744 47.8745 77.7744 48.304L87.0277 175.961L60.2108 109.505L65.3169 179.952L34.1309 102.671C33.0306 99.9648 31.2201 97.8176 29.0567 96.2174C27.5529 98.6076 26.7119 101.387 26.7119 104.251C26.7119 105.705 26.8825 107.079 27.3115 108.533L75.1184 272.691V338.746H156.22V302.387L178.325 276.682Z" fill="#FFCC99"/>
<path d="M107.469 168.559L86.9072 48.5264C85.3649 39.6138 76.5402 33.8733 67.8013 36.1014C60.8612 37.8151 55.9775 43.9851 55.9775 51.0949C55.9775 51.4393 56.0634 51.8646 56.0634 52.2941L65.3163 179.951" stroke="#231F20" stroke-width="9" stroke-miterlimit="10"/>
<path d="M148.595 169.928L147.566 21.5366C147.481 12.3688 140.027 4.99963 130.86 4.99963C121.864 4.99963 114.581 12.0244 114.153 20.937L107.47 168.558" stroke="#231F20" stroke-width="9" stroke-miterlimit="10"/>
<path d="M180.724 195.889L206.941 62.2317C208.311 55.1219 204.542 48.0121 197.945 45.0993C195.888 44.2404 193.832 43.8109 191.776 43.8109C184.922 43.8109 178.582 48.4374 176.783 55.5513L148.595 169.929" stroke="#231F20" stroke-width="9" stroke-miterlimit="10"/>
<path d="M65.3166 179.951L34.1305 102.671C30.7891 94.4467 21.2789 90.8492 13.311 94.7911C8.08457 97.3595 5 102.671 5 108.241C5 109.699 5.17137 111.069 5.59998 112.527L53.4077 276.681V342.74H156.22V302.386L178.324 276.681L232.129 175.669C235.128 170.099 234.7 163.248 231.016 158.107C227.674 153.306 222.534 150.993 217.393 150.993C211.824 150.993 206.255 153.736 202.999 159.132L180.723 195.889L140.198 200.345L117.323 244.381" stroke="#231F20" stroke-width="9" stroke-miterlimit="10"/>
<rect x="19" y="340" width="169" height="72" rx="16" fill="white" stroke="#231F20" stroke-width="8"/>
<rect x="39" y="344" width="145" height="64" rx="10" fill="#87CEEB"/>
</svg>
