<svg width="203" height="414" viewBox="0 0 203 414" fill="none" xmlns="http://www.w3.org/2000/svg">
<path d="M14.3883 380.179C7.70545 377.267 3.84993 370.068 5.30674 362.873L33.1514 219.533V219.448L66.4802 237.014C71.1062 239.498 76.7609 237.784 79.3314 233.243L82.4159 227.761C83.4441 225.959 84.0437 223.99 84.3005 222.106L97.3235 221.847C97.3235 223.305 97.4949 224.844 97.9235 226.388L114.031 287.646L134.679 388.573C134.936 389.688 135.021 390.802 135.021 391.916C135.021 399.115 130.395 405.625 123.369 407.853C114.116 410.766 104.349 405.195 102.122 395.772L67.508 259.458L35.7219 369.897C33.8369 376.922 27.4113 381.464 20.557 381.464C18.5007 381.464 16.4447 381.034 14.3883 380.179" fill="#FF8C69"/>
<path d="M162.267 228.96V248.835C162.267 256.204 157.64 262.8 150.7 265.287L111.817 279.227L114.031 287.646L176.403 265.287C183.343 262.8 187.97 256.204 187.97 248.835V228.96L159.953 141.483V75.4238H134.251V141.483L162.267 228.96" fill="white"/>
<path d="M35.1224 141.483L12.8461 183.291C7.02046 194.172 11.1328 207.797 22.0994 213.622L33.1515 219.448L66.4802 237.014C71.1063 239.497 76.7609 237.783 79.3314 233.242L82.416 227.761C83.4442 225.958 84.0438 223.989 84.3006 222.105L97.3236 221.846C97.3236 223.305 97.4949 224.844 97.9235 226.387L111.817 279.227L150.7 265.287C157.64 262.8 162.267 256.204 162.267 248.835V228.96L134.251 141.483V75.4238L57.141 75.4238V115.778L35.1224 141.483" fill="#FF8C69"/>
<path d="M163.638 16.9935V60.3453C163.638 68.6583 156.869 75.4238 148.559 75.4238H159.953H174.261C182.572 75.4238 189.341 68.6583 189.341 60.3453V16.9935C189.341 8.68449 182.572 2 174.261 2L148.559 2C156.869 2 163.638 8.68449 163.638 16.9935Z" fill="white"/>
<path d="M67.508 259.457L102.122 395.772C104.349 405.195 114.116 410.765 123.369 407.852C130.395 405.624 135.021 399.114 135.021 391.915C135.021 390.801 134.936 389.687 134.679 388.573L114.031 287.645" stroke="#231F20" stroke-width="9" stroke-miterlimit="10"/>
<path d="M33.1513 219.533L5.3066 362.873C3.84979 370.067 7.70531 377.266 14.3882 380.179C16.4445 381.034 18.5005 381.463 20.5569 381.463C27.4111 381.463 33.8367 376.922 35.7217 369.897L67.5078 259.458" stroke="#231F20" stroke-width="9" stroke-miterlimit="10"/>
<path d="M52.6004 188.006L65.6233 197.944L78.3036 207.711C82.8441 211.139 84.986 216.705 84.3005 222.105C84.0437 223.989 83.4441 225.958 82.4159 227.761L79.3313 233.242C76.7609 237.783 71.1062 239.497 66.4802 237.014L33.1514 219.448L22.0993 213.622C11.1328 207.797 7.02039 194.172 12.846 183.291L35.1223 141.483L57.1409 115.778V75.4238L159.953 75.4238V141.483L187.97 228.96V248.835C187.97 256.204 183.343 262.8 176.403 265.287L114.031 287.646L97.9235 226.387C97.4949 224.844 97.3235 223.305 97.3235 221.846C97.3235 213.367 103.321 205.739 112.06 204.199L136.221 199.828C144.703 198.284 153.014 203.17 155.755 211.224L163.895 234.441" stroke="#231F20" stroke-width="9" stroke-miterlimit="10"/>
<path d="M65.6236 197.944L102.636 154.763" stroke="#231F20" stroke-width="9" stroke-miterlimit="10"/>
<rect x="198.175" y="76.0977" width="169" height="72" rx="16" transform="rotate(-180 198.175 76.0977)" fill="white" stroke="#231F20" stroke-width="8"/>
<rect x="178.175" y="72.0977" width="145" height="64" rx="10" transform="rotate(-180 178.175 72.0977)" fill="#87CEEB"/>
</svg>
