<svg width="239" height="416" viewBox="0 0 239 416" fill="none" xmlns="http://www.w3.org/2000/svg">
<path d="M193.296 19.1581V62.3398C193.296 66.788 191.362 70.7419 188.339 73.5089H199.927C208.238 73.5089 215.006 66.7434 215.006 58.3453V15.1636C215.006 6.76955 208.238 0 199.927 0L68.5844 0C64.6775 0 61.144 1.5354 58.4617 3.99042L178.215 3.99042C186.527 3.99042 193.296 10.76 193.296 19.1581Z" fill="white"/>
<path d="M40.6185 364.693C40.1798 366.427 39.4538 367.999 38.5338 369.404C39.3898 370.016 40.1765 370.713 41.1674 371.15C43.2238 372.009 45.2802 372.439 47.3362 372.439C54.1904 372.439 60.5305 367.812 62.3296 360.698L69.373 332.117L68.8063 250.312L40.6185 364.693" fill="#FF8C69"/>
<path d="M14.4022 261.108C14.0283 261.728 13.5288 262.19 13.097 262.741C15.746 264.361 18.7099 265.256 21.7195 265.256C24.2248 265.256 26.7017 264.62 28.9963 263.518L36.6777 224.352L14.4022 261.108" fill="#FF8C69"/>
<path d="M161.339 367.946C161.339 368.376 161.424 368.805 161.424 369.145C161.424 372.338 160.327 375.263 158.617 377.758C162.179 380.262 166.743 381.311 171.311 380.148C178.251 378.435 183.135 372.265 183.135 365.155C183.135 364.811 183.049 364.385 183.049 363.956L178.902 306.745L152.085 240.289L161.339 367.946Z" fill="#FF8C69"/>
<path d="M103.249 399.306C103.076 402.907 101.744 406.169 99.6686 408.814C102.185 410.329 105.103 411.249 108.253 411.249C117.249 411.249 124.532 404.224 124.96 395.311L126.962 351.097L109.933 251.685L103.249 399.306" fill="#FF8C69"/>
<path d="M163.994 143.558L211.801 307.716C212.23 309.171 212.401 310.544 212.401 311.998C212.401 314.863 211.56 317.642 210.056 320.032C214.462 323.293 220.458 324.103 225.801 321.458C231.028 318.89 234.112 313.578 234.112 308.008C234.112 306.55 233.941 305.18 233.512 303.722L185.705 139.568V73.5088L82.8926 73.5088V77.5033H163.994V143.558Z" fill="white"/>
<path d="M60.7878 139.568L6.98268 240.581C3.98399 246.151 4.41221 253.002 8.09636 258.143C9.48106 260.132 11.221 261.594 13.0963 262.741C13.5282 262.19 14.0277 261.728 14.4016 261.108L36.6771 224.352L28.9956 263.518C31.8015 262.169 34.3213 260.087 36.1128 257.118L58.3887 220.361L32.1714 354.018C31.007 360.058 33.6942 365.937 38.5337 369.404C39.4538 367.999 40.1797 366.427 40.6185 364.693L68.8063 250.312L69.373 332.117L90.5174 246.321L91.5456 394.712C91.6023 400.728 94.8619 405.922 99.6679 408.814C101.743 406.169 103.075 402.908 103.248 399.306L109.932 251.685L126.961 351.097L131.642 247.69L152.205 367.723C152.941 371.977 155.363 375.469 158.616 377.758C160.326 375.263 161.423 372.338 161.423 369.145C161.423 368.805 161.338 368.375 161.338 367.946L152.085 240.289L178.901 306.745L173.795 236.298L204.981 313.579C206.082 316.285 207.892 318.432 210.056 320.033C211.559 317.642 212.4 314.863 212.4 311.999C212.4 310.545 212.23 309.171 211.801 307.717L163.994 143.559V77.5039L82.8923 77.5039V113.863L60.7878 139.568Z" fill="#FF8C69"/>
<path d="M131.643 247.69L152.205 367.723C153.747 376.635 162.572 382.376 171.311 380.148C178.251 378.434 183.135 372.264 183.135 365.154C183.135 364.81 183.049 364.384 183.049 363.955L173.796 236.298" stroke="#231F20" stroke-width="9" stroke-miterlimit="10"/>
<path d="M90.5177 246.321L91.5459 394.712C91.6314 403.88 99.0852 411.249 108.253 411.249C117.249 411.249 124.532 404.225 124.96 395.312L131.643 247.691" stroke="#231F20" stroke-width="9" stroke-miterlimit="10"/>
<path d="M58.3888 220.361L32.1715 354.018C30.801 361.128 34.5706 368.238 41.1676 371.151C43.224 372.01 45.2803 372.439 47.3363 372.439C54.1905 372.439 60.5306 367.813 62.3298 360.699L90.5176 246.321" stroke="#231F20" stroke-width="9" stroke-miterlimit="10"/>
<path d="M173.796 236.298L204.982 313.578C208.323 321.802 217.833 325.4 225.801 321.458C231.028 318.89 234.112 313.578 234.112 308.008C234.112 306.55 233.941 305.18 233.512 303.722L185.705 139.568V73.5088L82.8926 73.5088V113.863L60.7881 139.568L6.98301 240.58C3.98432 246.15 4.41254 253.001 8.09669 258.142C11.4381 262.943 16.5787 265.256 21.7192 265.256C27.2884 265.256 32.8572 262.513 36.1131 257.117L58.389 220.36L98.9139 215.904L121.79 171.868" stroke="#231F20" stroke-width="9" stroke-miterlimit="10"/>
<rect x="220.112" y="76.249" width="169" height="72" rx="16" transform="rotate(-180 220.112 76.249)" fill="white" stroke="#231F20" stroke-width="8"/>
<rect x="200.112" y="72.249" width="145" height="64" rx="10" transform="rotate(-180 200.112 72.249)" fill="#87CEEB"/>
</svg>
