<svg width="231" height="351" viewBox="0 0 231 351" fill="none" xmlns="http://www.w3.org/2000/svg">
<path d="M70.6737 46.0647L151.892 7.59464C152.508 7.30295 153.168 7.21791 153.792 6.97889C147.01 4.30105 139.382 4.39014 132.633 7.59464L51.4103 46.0647C39.674 51.6351 32.2197 63.4566 32.2197 76.3961V277.137H51.4791V76.3961C51.4791 63.4566 58.9333 51.6351 70.6737 46.0647Z" fill="white"/>
<path d="M161.075 224.358C169.729 222.729 177.183 216.989 180.955 208.935L223.962 116.92C226.62 111.265 226.535 104.754 223.792 99.1841L211.541 74.8526C207.514 66.7988 199.375 61.6578 190.378 61.6578H187.724L192.091 48.8925C194.919 40.6686 191.836 31.5007 184.552 26.7001L158.847 9.4825C157.255 8.41299 155.533 7.66356 153.791 6.97891C153.167 7.21793 152.507 7.30298 151.891 7.59466L70.6731 46.0648C58.9327 51.6352 51.4785 63.4566 51.4785 76.3961V277.137H153.107H153.281V225.816L161.075 224.358" fill="#FFCC99"/>
<path d="M31.2594 335.482V292.215C31.2594 283.902 38.0289 277.137 46.3379 277.137H32.2195H27.0785C18.7695 277.137 12 283.902 12 292.215V335.482C12 343.791 18.7695 350.561 27.0785 350.561H46.3379C38.0289 350.561 31.2594 343.791 31.2594 335.482Z" fill="white"/>
<path d="M153.107 277.137H32.2197V76.3961C32.2197 63.4566 39.674 51.6352 51.4103 46.0648L132.633 7.59469C141.116 3.5678 151.053 4.25244 158.848 9.48253L184.553 26.7001C191.837 31.5008 194.92 40.6686 192.092 48.8926L187.725 61.6578L170.673 111.435L161.765 137.48C158.593 146.648 149.939 152.818 140.257 152.818H96.9902C90.3949 152.818 84.9947 147.422 84.9947 140.737V139.024C84.9947 123.69 97.4196 111.265 112.757 111.265H118.668" stroke="#231F20" stroke-width="9" stroke-miterlimit="10"/>
<path d="M187.635 61.6578H190.378C199.376 61.6578 207.515 66.7989 211.541 74.8526L223.792 99.1841C226.535 104.754 226.62 111.265 223.962 116.92L180.955 208.935C177.183 216.989 169.729 222.729 161.076 224.358L153.281 225.816V277.137" stroke="#231F20" stroke-width="9" stroke-miterlimit="10"/>
<path d="M170.673 111.436H190.977" stroke="#231F20" stroke-width="9" stroke-miterlimit="10"/>
<path d="M88.7656 149.65L104.444 164.814C111.898 172.009 116.095 181.861 116.095 192.143V211.938" stroke="#231F20" stroke-width="9" stroke-miterlimit="10"/>
<rect x="4" y="275" width="169" height="72" rx="16" fill="white" stroke="#231F20" stroke-width="8"/>
<rect x="24" y="279" width="145" height="64" rx="10" fill="#87CEEB"/>
</svg>
