<svg width="231" height="352" viewBox="0 0 231 352" fill="none" xmlns="http://www.w3.org/2000/svg">
<path d="M160.232 305.496L79.0133 343.966C78.3976 344.258 77.7372 344.343 77.1133 344.582C83.895 347.259 91.5234 347.17 98.2727 343.966L179.495 305.496C191.231 299.925 198.686 288.104 198.686 275.164L198.686 74.4238H179.426L179.426 275.164C179.426 288.104 171.972 299.925 160.232 305.496Z" fill="white"/>
<path d="M69.8298 127.203C61.1765 128.831 53.7223 134.572 49.9507 142.626L6.94322 234.64C4.28564 240.296 4.37068 246.806 7.11334 252.376L19.3642 276.708C23.391 284.762 31.5299 289.903 40.5276 289.903H43.1811L38.8139 302.668C35.9862 310.892 39.0691 320.06 46.3532 324.86L72.058 342.078C73.6501 343.148 75.3719 343.897 77.1139 344.582C77.7378 344.343 78.3981 344.258 79.0139 343.966L160.232 305.496C171.973 299.925 179.427 288.104 179.427 275.164L179.427 74.4238L77.7986 74.4238H77.6243V125.744L69.8298 127.203" fill="#FF6F61"/>
<path d="M199.646 16.0785V59.3453C199.646 67.6583 192.876 74.4238 184.567 74.4238H198.686H203.827C212.136 74.4238 218.905 67.6583 218.905 59.3453V16.0785C218.905 7.76955 212.136 1 203.827 1L184.567 1C192.876 1 199.646 7.76955 199.646 16.0785Z" fill="white"/>
<path d="M77.798 74.4238L198.686 74.4238L198.686 275.164C198.686 288.104 191.231 299.925 179.495 305.496L98.2727 343.966C89.7895 347.993 79.8519 347.308 72.0574 342.078L46.3526 324.86C39.0685 320.06 35.9856 310.892 38.8133 302.668L43.1805 289.903L60.232 240.126L69.1405 214.081C72.3126 204.913 80.966 198.743 90.6483 198.743H133.915C140.51 198.743 145.911 204.139 145.911 210.823V212.537C145.911 227.871 133.486 240.296 118.148 240.296H112.237" stroke="#231F20" stroke-width="9" stroke-miterlimit="10"/>
<path d="M43.2699 289.903H40.5273C31.5296 289.903 23.3907 284.762 19.3638 276.708L7.11302 252.376C4.37036 246.806 4.28532 240.296 6.9429 234.64L49.9503 142.626C53.722 134.572 61.1762 128.831 69.8295 127.203L77.624 125.744V74.4238" stroke="#231F20" stroke-width="9" stroke-miterlimit="10"/>
<path d="M60.2324 240.125H39.9278" stroke="#231F20" stroke-width="9" stroke-miterlimit="10"/>
<path d="M142.14 201.91L126.462 186.746C119.007 179.552 114.81 169.699 114.81 159.417V139.623" stroke="#231F20" stroke-width="9" stroke-miterlimit="10"/>
<rect x="226.905" y="76.5605" width="169" height="72" rx="16" transform="rotate(-180 226.905 76.5605)" fill="white" stroke="#231F20" stroke-width="8"/>
<rect x="206.905" y="72.5605" width="145" height="64" rx="10" transform="rotate(-180 206.905 72.5605)" fill="#6FA3EF"/>
</svg>
