<svg width="202" height="414" viewBox="0 0 202 414" fill="none" xmlns="http://www.w3.org/2000/svg">
<path d="M187.787 33.4486C194.469 36.3614 198.325 43.5604 196.868 50.7553L169.023 194.095V194.18L135.695 176.614C131.069 174.13 125.414 175.844 122.843 180.385L119.759 185.867C118.731 187.669 118.131 189.638 117.874 191.522L104.851 191.781C104.851 190.323 104.68 188.783 104.251 187.24L88.1442 125.982L67.496 25.0545C67.2392 23.9404 67.1533 22.8263 67.1533 21.7123C67.1533 14.5133 71.7798 8.00308 78.8054 5.77493C88.0587 2.86212 97.8257 8.43248 100.053 17.8556L134.667 154.17L166.453 43.7305C168.338 36.7057 174.764 32.1643 181.618 32.1643C183.674 32.1643 185.73 32.5938 187.787 33.4486" fill="#FFCC99"/>
<path d="M39.9083 184.667V164.792C39.9083 157.423 44.5347 150.827 51.4744 148.34L90.3582 134.4L88.1442 125.981L25.7716 148.34C18.8315 150.827 14.2051 157.423 14.2051 164.792V184.667L42.2215 272.144V338.203H67.9243V272.144L39.9083 184.667" fill="white"/>
<path d="M167.052 272.144L189.329 230.336C195.154 219.455 191.042 205.83 180.075 200.005L169.023 194.179L135.695 176.613C131.069 174.13 125.414 175.843 122.843 180.385L119.759 185.866C118.731 187.669 118.131 189.638 117.874 191.522L104.851 191.781C104.851 190.322 104.68 188.783 104.251 187.239L90.3581 134.4L51.4744 148.34C44.5347 150.827 39.9082 157.423 39.9082 164.792V184.667L67.9242 272.144V338.203H145.034V297.849L167.052 272.144" fill="#FFCC99"/>
<path d="M38.5372 396.633V353.282C38.5372 344.969 45.3055 338.203 53.6161 338.203H42.2213H27.9133C19.6027 338.203 12.834 344.969 12.834 353.282V396.633C12.834 404.942 19.6027 411.627 27.9133 411.627H53.6161C45.3055 411.627 38.5372 404.942 38.5372 396.633Z" fill="white"/>
<path d="M134.667 154.17L100.053 17.8554C97.8257 8.43229 88.0587 2.86193 78.8054 5.77474C71.7798 8.0029 67.1533 14.5131 67.1533 21.7121C67.1533 22.8261 67.2392 23.9402 67.496 25.0543L88.1442 125.982" stroke="#231F20" stroke-width="9" stroke-miterlimit="10"/>
<path d="M169.024 194.096L196.868 50.7564C198.325 43.5615 194.469 36.3625 187.787 33.4497C185.73 32.5949 183.674 32.1654 181.618 32.1654C174.764 32.1654 168.338 36.7068 166.453 43.7316L134.667 154.171" stroke="#231F20" stroke-width="9" stroke-miterlimit="10"/>
<path d="M149.574 225.62L136.551 215.683L123.871 205.915C119.331 202.488 117.189 196.922 117.874 191.522C118.131 189.638 118.731 187.669 119.759 185.866L122.843 180.385C125.414 175.843 131.069 174.13 135.695 176.613L169.023 194.179L180.075 200.005C191.042 205.83 195.154 219.455 189.329 230.336L167.053 272.144L145.034 297.849V338.203H42.2215V272.144L14.2051 184.667V164.792C14.2051 157.423 18.8315 150.827 25.7716 148.34L88.1442 125.981L104.251 187.239C104.68 188.783 104.851 190.322 104.851 191.781C104.851 200.26 98.8539 207.888 90.1147 209.428L65.9542 213.799C57.4722 215.343 49.1612 210.457 46.4198 202.403L38.2801 179.186" stroke="#231F20" stroke-width="9" stroke-miterlimit="10"/>
<path d="M136.551 215.684L99.5391 258.865" stroke="#231F20" stroke-width="9" stroke-miterlimit="10"/>
<rect x="4" y="337.529" width="169" height="72" rx="16" fill="white" stroke="#231F20" stroke-width="8"/>
<rect x="24" y="341.529" width="145" height="64" rx="10" fill="#87CEEB"/>
</svg>
